<svg xmlns="http://www.w3.org/2000/svg" width="32px" height="32px"  viewBox="0 0 24 24"><g>
                <path d="M10.15,12.35c-0.2-0.18-0.19-0.52,0-0.7l3-3c0.19-0.2,0.5-0.19,0.7,0c0.2,0.18,0.19,0.52,0,0.7
                    L11.21,12l2.64,2.65c0.2,0.19,0.19,0.5,0,0.7c-0.18,0.2-0.52,0.19-0.7,0L10.15,12.35z"/>
                <path d="M12,21.933c-5.477,0-9.933-4.456-9.933-9.933S6.523,2.067,12,2.067S21.933,6.523,21.933,12
                    S17.477,21.933,12,21.933z M12,3.067c-4.926,0-8.933,4.007-8.933,8.933S7.074,20.933,12,20.933s8.933-4.007,8.933-8.933
                    S16.926,3.067,12,3.067z"/>
            </g></svg>