<svg xmlns="http://www.w3.org/2000/svg" width="32px" height="32px"  viewBox="0 0 24 24"><g>
                <g>
                    <path d="M12.486,8.752c0-0.643-1-0.645-1,0l0,0v6c0,0.643,1,0.645,1,0V8.752z"/>
                    <circle cx="11.986" cy="16.737" r="0.5"/>
                </g>
                <path d="M18.628,20.934H5.371c-0.879,0-1.677-0.448-2.134-1.198s-0.491-1.665-0.088-2.446L9.778,4.421
                    C10.208,3.585,11.06,3.066,12,3.066c0.94,0,1.792,0.52,2.223,1.355l6.628,12.869c0.402,0.781,0.37,1.696-0.088,2.446
                    C20.306,20.486,19.507,20.934,18.628,20.934z M12,4.066c-0.573,0-1.071,0.304-1.333,0.813L4.038,17.748
                    c-0.241,0.469-0.222,1.018,0.053,1.468c0.274,0.45,0.753,0.719,1.28,0.719h13.257c0.527,0,1.006-0.269,1.281-0.719
                    c0.274-0.45,0.294-0.999,0.053-1.467L13.334,4.879C13.071,4.37,12.573,4.066,12,4.066z"/>
            </g></svg>