<svg xmlns="http://www.w3.org/2000/svg" xmlns:xlink="http://www.w3.org/1999/xlink" width="500" zoomAndPan="magnify" viewBox="0 0 375 374.999991" height="500" preserveAspectRatio="xMidYMid meet" version="1.0"><defs><clipPath id="cfa576b7c7"><path d="M 37.5 126.441406 L 331.5 126.441406 L 331.5 259.191406 L 37.5 259.191406 Z M 37.5 126.441406 " clip-rule="nonzero"/></clipPath><clipPath id="88a0eb9758"><path d="M 44.378906 124.152344 L 324.128906 124.152344 L 324.128906 250.902344 L 44.378906 250.902344 Z M 44.378906 124.152344 " clip-rule="nonzero"/></clipPath></defs><g clip-path="url(#cfa576b7c7)"><path fill="#000000" d="M 322.824219 166.910156 C 316.105469 157.980469 307.960938 150.832031 299.785156 145.183594 C 296.800781 143.191406 293.621094 141.261719 290.25 139.398438 C 281.664062 134.660156 272.191406 130.574219 262.035156 127.179688 C 260.460938 126.71875 259.578125 126.507812 259.578125 126.507812 C 259.578125 126.507812 275.257812 140.234375 257.820312 158.277344 C 240.976562 175.699219 203.257812 173.160156 200.703125 172.964844 C 196.71875 164.070312 197.34375 153.78125 197.34375 153.78125 L 196.820312 141.644531 L 189.804688 154.507812 C 187.515625 154.300781 184.5 154.234375 184.5 154.234375 C 184.5 154.234375 181.484375 154.300781 179.195312 154.507812 L 172.179688 141.644531 L 171.65625 153.78125 C 171.65625 153.78125 172.28125 164.070312 168.296875 172.964844 C 165.742188 173.160156 128.023438 175.699219 111.179688 158.277344 C 93.746094 140.234375 109.421875 126.507812 109.421875 126.507812 C 109.421875 126.507812 108.539062 126.71875 106.964844 127.179688 C 96.808594 130.574219 87.335938 134.660156 78.75 139.398438 C 75.378906 141.261719 72.199219 143.191406 69.21875 145.179688 C 61.039062 150.832031 52.894531 157.980469 46.175781 166.910156 C 40.472656 175.179688 37.5 183.929688 37.5 192.84375 C 37.5 193.675781 37.527344 194.507812 37.582031 195.335938 C 54.042969 192.285156 103.582031 186.054688 105.582031 221.175781 C 105.582031 221.175781 127.257812 204.648438 157.492188 224.035156 C 170.230469 232.203125 179.703125 244.570312 184.417969 258.929688 C 184.445312 259.015625 184.472656 259.097656 184.5 259.183594 C 184.527344 259.097656 184.554688 259.015625 184.582031 258.929688 C 189.296875 244.570312 198.769531 232.203125 211.507812 224.035156 C 241.742188 204.648438 263.417969 221.175781 263.417969 221.175781 C 265.417969 186.054688 314.957031 192.285156 331.417969 195.335938 C 331.472656 194.507812 331.5 193.675781 331.5 192.84375 C 331.5 183.929688 328.527344 175.179688 322.824219 166.910156 " fill-opacity="1" fill-rule="nonzero"/></g><g clip-path="url(#88a0eb9758)"><path fill="#40010d" d="M 316.097656 162.777344 C 309.703125 154.253906 301.945312 147.433594 294.160156 142.039062 C 291.316406 140.140625 288.289062 138.296875 285.078125 136.519531 C 276.898438 132 267.878906 128.097656 258.210938 124.859375 C 256.707031 124.421875 255.867188 124.21875 255.867188 124.21875 C 255.867188 124.21875 270.800781 137.320312 254.191406 154.535156 C 238.152344 171.164062 202.230469 168.738281 199.800781 168.554688 C 196.007812 160.066406 196.597656 150.246094 196.597656 150.246094 L 196.101562 138.664062 L 189.421875 150.941406 C 187.242188 150.742188 184.371094 150.679688 184.371094 150.679688 C 184.371094 150.679688 181.496094 150.742188 179.320312 150.941406 L 172.636719 138.664062 L 172.140625 150.246094 C 172.140625 150.246094 172.734375 160.066406 168.941406 168.554688 C 166.507812 168.738281 130.585938 171.164062 114.546875 154.535156 C 97.941406 137.320312 112.871094 124.21875 112.871094 124.21875 C 112.871094 124.21875 112.03125 124.421875 110.53125 124.859375 C 100.859375 128.097656 91.839844 132 83.660156 136.519531 C 80.449219 138.296875 77.421875 140.140625 74.582031 142.039062 C 66.792969 147.433594 59.039062 154.253906 52.640625 162.777344 C 47.210938 170.667969 44.378906 179.019531 44.378906 187.527344 C 44.378906 188.320312 44.402344 189.113281 44.453125 189.90625 C 60.132812 186.992188 107.3125 181.046875 109.214844 214.5625 C 109.214844 214.5625 129.855469 198.789062 158.652344 217.292969 C 170.78125 225.085938 179.800781 236.890625 184.292969 250.59375 C 184.316406 250.675781 184.34375 250.753906 184.371094 250.835938 C 184.394531 250.753906 184.421875 250.675781 184.449219 250.59375 C 188.9375 236.890625 197.957031 225.085938 210.089844 217.292969 C 238.882812 198.789062 259.523438 214.5625 259.523438 214.5625 C 261.429688 181.046875 308.605469 186.992188 324.285156 189.90625 C 324.335938 189.113281 324.363281 188.320312 324.363281 187.527344 C 324.363281 179.019531 321.53125 170.667969 316.097656 162.777344 " fill-opacity="1" fill-rule="nonzero"/></g></svg>