<svg xmlns="http://www.w3.org/2000/svg" xmlns:xlink="http://www.w3.org/1999/xlink" width="500" zoomAndPan="magnify" viewBox="0 0 375 187.499995" height="250" preserveAspectRatio="xMidYMid meet" version="1.0"><defs><clipPath id="573860fb07"><path d="M 37.8125 25.769531 L 337.015625 25.769531 L 337.015625 161.15625 L 37.8125 161.15625 Z M 37.8125 25.769531 " clip-rule="nonzero"/></clipPath></defs><g clip-path="url(#573860fb07)"><path fill="#40010d" d="M 328.183594 67.042969 C 321.351562 57.933594 313.0625 50.644531 304.738281 44.882812 C 301.703125 42.851562 298.46875 40.882812 295.035156 38.984375 C 286.296875 34.152344 276.65625 29.980469 266.324219 26.523438 C 264.71875 26.054688 263.820312 25.835938 263.820312 25.835938 C 263.820312 25.835938 279.777344 39.835938 262.03125 58.238281 C 244.890625 76.007812 206.503906 73.414062 203.902344 73.21875 C 199.851562 64.144531 200.484375 53.652344 200.484375 53.652344 L 199.953125 41.273438 L 192.8125 54.394531 C 190.484375 54.179688 187.414062 54.117188 187.414062 54.117188 C 187.414062 54.117188 184.347656 54.179688 182.019531 54.394531 L 174.875 41.273438 L 174.347656 53.652344 C 174.347656 53.652344 174.980469 64.144531 170.925781 73.21875 C 168.328125 73.414062 129.941406 76.007812 112.800781 58.238281 C 95.054688 39.835938 111.007812 25.835938 111.007812 25.835938 C 111.007812 25.835938 110.109375 26.054688 108.507812 26.523438 C 98.171875 29.980469 88.535156 34.152344 79.792969 38.984375 C 76.363281 40.882812 73.125 42.851562 70.09375 44.878906 C 61.769531 50.644531 53.480469 57.933594 46.644531 67.042969 C 40.839844 75.472656 37.8125 84.398438 37.8125 93.492188 C 37.8125 94.339844 37.84375 95.1875 37.894531 96.03125 C 54.652344 92.917969 105.066406 86.566406 107.101562 122.382812 C 107.101562 122.382812 129.160156 105.527344 159.929688 125.300781 C 172.894531 133.628906 182.535156 146.246094 187.332031 160.890625 C 187.359375 160.976562 187.386719 161.0625 187.414062 161.148438 C 187.441406 161.0625 187.472656 160.976562 187.5 160.890625 C 192.296875 146.246094 201.9375 133.628906 214.898438 125.300781 C 245.671875 105.527344 267.726562 122.382812 267.726562 122.382812 C 269.761719 86.566406 320.179688 92.917969 336.933594 96.03125 C 336.988281 95.1875 337.015625 94.339844 337.015625 93.492188 C 337.015625 84.398438 333.988281 75.472656 328.183594 67.042969 " fill-opacity="1" fill-rule="nonzero"/><path fill="#111111ea" d="M 328.183594 67.042969 C 321.351562 57.933594 313.0625 50.644531 304.738281 44.882812 C 301.703125 42.851562 298.46875 40.882812 295.035156 38.984375 C 286.296875 34.152344 276.65625 29.980469 266.324219 26.523438 C 264.71875 26.054688 263.820312 25.835938 263.820312 25.835938 C 263.820312 25.835938 279.777344 39.835938 262.03125 58.238281 C 244.890625 76.007812 206.503906 73.414062 203.902344 73.21875 C 199.851562 64.144531 200.484375 53.652344 200.484375 53.652344 L 199.953125 41.273438 L 192.8125 54.394531 C 190.484375 54.179688 187.414062 54.117188 187.414062 54.117188 C 187.414062 54.117188 184.347656 54.179688 182.019531 54.394531 L 174.875 41.273438 L 174.347656 53.652344 C 174.347656 53.652344 174.980469 64.144531 170.925781 73.21875 C 168.328125 73.414062 129.941406 76.007812 112.800781 58.238281 C 95.054688 39.835938 111.007812 25.835938 111.007812 25.835938 C 111.007812 25.835938 110.109375 26.054688 108.507812 26.523438 C 98.171875 29.980469 88.535156 34.152344 79.792969 38.984375 C 76.363281 40.882812 73.125 42.851562 70.09375 44.878906 C 61.769531 50.644531 53.480469 57.933594 46.644531 67.042969 C 40.839844 75.472656 37.8125 84.398438 37.8125 93.492188 C 37.8125 94.339844 37.84375 95.1875 37.894531 96.03125 C 54.652344 92.917969 105.066406 86.566406 107.101562 122.382812 C 107.101562 122.382812 129.160156 105.527344 159.929688 125.300781 C 172.894531 133.628906 182.535156 146.246094 187.332031 160.890625 C 187.359375 160.976562 187.386719 161.0625 187.414062 161.148438 C 187.441406 161.0625 187.472656 160.976562 187.5 160.890625 C 192.296875 146.246094 201.9375 133.628906 214.898438 125.300781 C 245.671875 105.527344 267.726562 122.382812 267.726562 122.382812 C 269.761719 86.566406 320.179688 92.917969 336.933594 96.03125 C 336.988281 95.1875 337.015625 94.339844 337.015625 93.492188 C 337.015625 84.398438 333.988281 75.472656 328.183594 67.042969 " fill-opacity="1" fill-rule="nonzero"/></g></svg>